# xmcd CD database file
#
# Track frame offsets:
#	150
#	33518
#	67742
#	85686
#	106286
#	135248
#	159410
#	187538
#	206218
#	237635
#	265467
#	289956
#	323085
#
# Disc length: 4680 seconds
#
# Revision: 0
# Processed by: cddbd v1.5.2PL0 Copyright (c) Steve Scherf et al.
# Submitted via: CDex 1.82
#
DISCID=af12460d
DTITLE=Ruben Blades - Historia Musical CD2
DYEAR=2016
DGENRE=Salsa
TTITLE0=Pedro Navaja
TTITLE1=Sorpresas (Pedro Navaja Parte II)
TTITLE2=No hay Chance
TTITLE3=Ganas
TTITLE4=Te estan buscando
TTITLE5=No te puedo querer
TTITLE6=Juan Pachanga
TTITLE7=Camaleon
TTITLE8=Pena de Amor
TTITLE9=Sigo pa' lante
TTITLE10=Siembra
TTITLE11=Maestra Vida
TTITLE12=El pasado no perdona
EXTD=YEAR: 2016
EXTT0=
EXTT1=
EXTT2=
EXTT3=
EXTT4=
EXTT5=
EXTT6=
EXTT7=
EXTT8=
EXTT9=
EXTT10=
EXTT11=
EXTT12=
PLAYORDER=
